<?xml version="1.0" standalone="no"?>
<!DOCTYPE svg PUBLIC "-//W3C//DTD SVG 20010904//EN"
 "http://www.w3.org/TR/2001/REC-SVG-20010904/DTD/svg10.dtd">
<svg version="1.0" xmlns="http://www.w3.org/2000/svg"
 width="500.000000pt" height="500.000000pt" viewBox="0 0 500.000000 500.000000"
 preserveAspectRatio="xMidYMid meet">

<g transform="translate(0.000000,500.000000) scale(0.100000,-0.100000)"
fill="#000000" stroke="none">
<path d="M1847 3040 c-90 -23 -145 -67 -167 -136 -33 -98 33 -176 185 -219 83
-24 105 -39 105 -75 0 -66 -103 -82 -183 -29 -26 17 -47 35 -47 40 0 20 -18 7
-49 -37 l-32 -46 23 -26 c67 -72 222 -96 324 -48 57 27 89 61 105 116 30 99
-29 176 -161 209 -78 20 -120 43 -126 68 -18 71 113 97 197 39 l34 -23 32 51
31 50 -23 18 c-56 44 -172 66 -248 48z"/>
<path d="M3077 3039 c-128 -31 -213 -135 -225 -274 -9 -123 56 -248 155 -296
90 -44 253 -34 322 20 l24 18 -18 51 c-17 45 -21 50 -34 38 -78 -68 -219 -60
-275 17 l-20 27 21 28 c34 45 122 53 206 17 15 -6 17 0 17 53 0 74 -13 87 -86
87 -80 0 -137 -50 -153 -135 l-8 -45 -12 30 c-16 38 -9 131 13 173 48 92 200
117 284 47 l29 -24 16 51 c19 61 16 68 -51 96 -57 24 -153 34 -205 21z"/>
<path d="M2178 2769 c2 -167 0 -282 -7 -300 l-10 -29 85 0 c82 0 84 1 74 20
-8 14 -10 112 -8 300 l3 280 -70 0 -70 0 3 -271z"/>
<path d="M2360 2971 l0 -69 38 14 c20 7 56 13 80 14 l42 0 0 -219 c0 -121 -4
-231 -10 -245 l-10 -26 86 0 c81 0 84 1 74 19 -6 12 -10 109 -10 247 l0 227
58 -6 c31 -3 65 -8 75 -12 15 -6 17 0 17 59 l0 66 -220 0 -220 0 0 -69z"/>
<path d="M2555 2271 c-33 -14 -56 -47 -62 -90 -10 -77 35 -134 107 -134 66 0
111 42 113 106 3 92 -76 151 -158 118z m103 -62 c25 -49 23 -100 -5 -131 -32
-35 -86 -16 -109 37 -27 65 -14 128 29 144 35 13 60 -2 85 -50z"/>
<path d="M2844 2270 c-62 -25 -86 -129 -44 -183 26 -32 82 -50 117 -36 18 6
30 6 39 -2 12 -9 14 -4 14 33 0 24 5 49 12 56 9 9 2 12 -32 12 -40 -1 -43 -2
-27 -14 38 -29 9 -84 -38 -72 -44 11 -65 44 -65 102 0 95 66 130 130 69 30
-28 37 -22 21 19 -5 14 -19 19 -57 22 -27 2 -59 -1 -70 -6z"/>
<path d="M2028 2263 c8 -3 12 -33 12 -98 0 -79 -3 -96 -17 -104 -14 -8 1 -10
57 -11 89 0 123 16 118 58 -2 15 -12 31 -25 37 -22 11 -22 12 -3 28 11 9 20
28 20 41 0 39 -35 56 -110 55 -36 0 -59 -3 -52 -6z m110 -15 c7 -7 12 -24 12
-38 0 -32 -17 -50 -47 -50 -21 0 -23 4 -23 50 0 46 2 50 23 50 13 0 28 -5 35
-12z m-4 -104 c9 -4 21 -15 27 -25 12 -24 -20 -59 -56 -59 -23 0 -25 4 -25 45
0 47 12 55 54 39z"/>
<path d="M2278 2263 c8 -3 12 -33 12 -98 0 -79 -3 -96 -17 -104 -13 -8 3 -10
63 -11 87 0 94 4 94 53 0 19 -3 17 -20 -10 -15 -26 -27 -33 -50 -33 l-30 0 0
99 c0 70 4 101 13 104 6 3 -8 5 -33 5 -25 0 -39 -2 -32 -5z"/>
</g>
</svg>
